<svg width="300" height="80" viewBox="0 0 300 80" fill="none" xmlns="http://www.w3.org/2000/svg">
  <!-- Background -->
  <rect width="300" height="80" fill="#000000" rx="8"/>
  
  <!-- Main Text -->
  <text x="20" y="35" font-family="Arial, sans-serif" font-size="24" font-weight="bold" fill="#FFFFFF">
    REPAIR APPLE
  </text>
  
  <!-- Subtitle -->
  <text x="20" y="50" font-family="Arial, sans-serif" font-size="8" font-weight="normal" fill="#FFFFFF">
    ASSISTÊNCIA TÉCNICA ESPECIALIZADA
  </text>
  
  <!-- Location -->
  <text x="20" y="62" font-family="Arial, sans-serif" font-size="12" font-weight="normal" fill="#FFFFFF">
    MACEIÓ
  </text>
  
  <!-- Apple Logo -->
  <g transform="translate(240, 15)">
    <circle cx="25" cy="25" r="25" fill="#FFFFFF"/>
    <path d="M25 10 C30 10, 35 15, 35 22 C35 25, 33 28, 30 30 C32 32, 35 35, 35 40 C35 45, 30 50, 25 50 C20 50, 15 45, 15 40 C15 35, 18 32, 20 30 C17 28, 15 25, 15 22 C15 15, 20 10, 25 10 Z M22 15 C20 15, 18 17, 18 19 C18 21, 20 23, 22 23 C24 23, 26 21, 26 19 C26 17, 24 15, 22 15 Z" fill="#000000"/>
  </g>
</svg>